<svg width="30" height="30" viewBox="0 0 30 30" fill="none" xmlns="http://www.w3.org/2000/svg">
<g clip-path="url(#clip0_24_3084)">
<path d="M10.1511 29.8485L10.9087 30L10.4542 29.6212L10.1511 29.3182L9.8481 28.7879L9.69659 28.4091V28.0303V27.7273V27.3485L9.8481 26.7424L10.1511 26.0606L10.4542 25.5303L10.9087 24.8485L11.439 24.0909L11.9693 23.3333L12.5754 22.6515L13.0299 21.8939L13.3329 21.2879L13.7117 20.5303L13.8633 19.7727L14.0148 19.0909L14.0905 18.3333V17.9545V17.5V16.9697V16.5909L14.0148 16.1364L14.3936 16.4394L14.9239 16.8182L15.3784 17.2727L15.8329 17.9545L16.0602 18.3333L16.3633 18.7879L16.5148 19.2424L16.5905 19.7727V20.303V22.5L16.5148 23.2576L16.3633 23.7879L16.2117 24.3939V24.8485L16.3633 25.2273L16.5148 25.5303L16.8178 25.7576L17.1966 25.8333H17.5754L17.9542 25.5303L18.3329 25.2273L18.636 24.697L18.8633 24.3182L19.1663 23.7879L19.3178 23.3333L19.3936 23.0303L19.6966 23.2576L19.9239 23.7879L20.1511 24.3939L20.3784 25L20.6057 25.5303L20.6814 26.0606V27.1212V28.2576L20.3784 28.9394L19.9239 29.697L19.7723 30L20.1511 29.8485L20.8329 29.2424L21.5148 28.7879L22.3481 28.0303L23.3329 26.8939L24.1663 25.7576L24.6966 24.697L25.0754 23.5606L25.3784 22.7273L25.4542 21.7424L25.5299 20.8333V20V19.3182L25.4542 18.7121L25.3784 18.1818L25.2269 17.5758L25.0754 17.1212L24.9239 16.6667L24.7723 16.2121L24.5451 15.7576L24.242 15.2273L23.8633 14.5455L23.4087 13.8636L23.0299 13.4848L22.5754 12.8788L22.1966 12.3485L21.8936 12.0455L21.439 11.5152L20.9845 10.9848L20.6814 10.4545L20.3784 9.84849L20.0754 9.31818L19.8481 8.63636L19.5451 7.95455L19.3178 7.42424L19.1663 6.81818L19.0148 6.21212L18.8633 5.68182L18.7875 5.22727L18.7117 4.54545L18.636 3.78788V2.19697V1.21212V0H18.4087L17.9542 0.227273L17.2723 0.681818L16.439 1.28788L15.5299 2.04545L14.5451 3.0303L13.7117 4.01515L12.9542 5.15152L12.3481 6.21212L12.0451 6.9697L11.5905 8.18182L11.2117 9.24242L10.9087 10.5303L10.6057 11.6667L10.5299 12.5V13.1818L10.3784 13.9394L10.1511 14.3182H9.8481L9.62083 14.2424L9.39355 13.9394L9.24204 13.5606L9.16628 13.1818V12.5V11.4394V10.5303V10.0758L9.24204 9.62121L9.39355 9.16667L9.54507 8.63636L9.62083 8.18182L9.3178 8.40909L8.71174 9.01515L7.95416 9.84849L7.42386 10.5303L6.8178 11.4394L6.28749 12.5L5.90871 13.7121L5.75719 14.6212V15.9848V16.8939V18.4091L5.90871 19.0909L6.13598 19.6212V20.1515L5.90871 20.4545L5.68143 20.5303L5.45416 20.4545L5.15113 20.1515L4.8481 19.7727L4.54507 19.3182L4.39355 19.0909V21.2121L4.54507 22.3485L4.8481 23.7121L5.45416 25.3788L6.36325 27.0455L7.57537 28.4848L9.09052 29.4697L10.1511 29.8485Z" fill="url(#paint0_linear_24_3084)" fill-opacity="0.92"/>
<path d="M9.62101 28.4849L9.77252 28.9394L9.84828 29.2425L9.54525 29.0152L9.0907 28.5606L8.71191 28.1061L8.25737 27.5758L7.65131 26.7425L7.27252 26.0606L6.81797 25.1516L6.5907 24.697L6.36343 24.2425L6.21191 23.9394L6.28767 23.7879H6.81797L7.19676 23.6364L7.57555 23.3334L7.87858 22.8788L8.0301 22.4243V21.6208V21.2122L7.87858 20.8334L7.72707 20.4546L7.65131 20V19.4697V18.2576V17.5758V16.5909V16.2122L7.72707 16.0606L7.87858 16.2122L7.95434 16.5909L8.10585 16.9697L8.25737 17.3485L8.63616 17.8031L8.93919 18.0303L9.24222 18.1061H9.69676L10.1513 18.0303L10.5301 17.8031L10.8331 17.4243L11.1362 17.0455L11.3634 16.5909L11.5907 16.2122L11.7422 15.7576L11.9695 15L12.121 14.0909L12.3483 13.1061L12.5756 12.2728L12.8028 11.3637L13.1816 10.4546L13.7877 9.1667L14.3937 8.25761L14.9998 7.50004L15.4543 6.96973L15.9089 6.51519L16.1362 6.21216L16.2877 6.28792V6.59095V6.96973V7.72731L16.3634 8.18186L16.5149 8.78792L16.818 9.54549L17.2725 10.5303L18.0301 11.6667L19.2422 13.1819L20.3028 14.394L21.2119 15.5303L22.1968 17.0455L22.8786 18.4849L23.2574 19.1667L23.4846 20.0758L23.5604 20.8334V21.894V22.7273V23.8637L23.4846 24.8485L23.0301 26.0606L22.424 27.2728L21.6665 28.4091L20.9089 29.0152L19.7725 30L19.924 29.7728L20.2271 29.3182L20.4543 29.0152L20.6059 28.6364L20.6816 28.4091V27.9546V27.6516V27.4243V27.1212V26.5152V25.9849L20.6059 25.6061L20.4543 25.3031L20.3028 24.7728L20.1513 24.2425L19.9998 23.9394L19.8483 23.5606L19.6968 23.1819L19.5452 22.9546L19.3937 23.0303L19.318 23.3334L19.0907 23.8637L18.9392 24.2425L18.5604 24.8485L18.1059 25.4546L17.6513 25.7576L17.121 25.9091L16.7422 25.7576L16.4392 25.4546L16.2877 25.0758V24.697L16.3634 24.2425L16.5149 23.5606L16.5907 23.0303V22.1212V19.9243L16.5149 19.5455L16.3634 19.1667L16.1362 18.5606L15.9089 18.0303L15.5301 17.5758L15.1513 17.1212L14.8483 16.7425L14.4695 16.3637L14.1665 16.1364V16.3637V16.5909V17.5V18.7879L14.0149 19.5455L13.7877 20.3031L13.4089 21.0606L13.0301 21.8182L12.424 22.6516L11.7422 23.6364L10.9846 24.6212L10.5301 25.3788L9.99979 26.2879L9.69676 26.9697L9.54525 27.7273L9.62101 28.4849Z" fill="url(#paint1_linear_24_3084)" fill-opacity="0.96"/>
</g>
<defs>
<linearGradient id="paint0_linear_24_3084" x1="14.9617" y1="0" x2="14.9617" y2="30" gradientUnits="userSpaceOnUse">
<stop stop-color="#DB1206"/>
<stop offset="0.23818" stop-color="#DF1409"/>
<stop offset="0.37" stop-color="#DC1307"/>
<stop offset="0.605" stop-color="#DC1309"/>
<stop offset="0.785" stop-color="#DF1409"/>
<stop offset="1" stop-color="#DD1506"/>
</linearGradient>
<linearGradient id="paint1_linear_24_3084" x1="14.8862" y1="6.21216" x2="14.8862" y2="30" gradientUnits="userSpaceOnUse">
<stop stop-color="#FDAE01"/>
<stop offset="0.11" stop-color="#FE8F00"/>
<stop offset="0.255" stop-color="#FB7600"/>
<stop offset="0.35" stop-color="#F66B00"/>
<stop offset="0.495" stop-color="#F34E02"/>
<stop offset="0.77" stop-color="#F54B03"/>
<stop offset="1" stop-color="#ED3306"/>
</linearGradient>
<clipPath id="clip0_24_3084">
<rect width="30" height="30" fill="white"/>
</clipPath>
</defs>
</svg>
